<?xml version="1.0" standalone="no"?>
<!DOCTYPE svg PUBLIC "-//W3C//DTD SVG 20010904//EN"
 "http://www.w3.org/TR/2001/REC-SVG-20010904/DTD/svg10.dtd">
<svg version="1.0" xmlns="http://www.w3.org/2000/svg"
 width="512.000000pt" height="512.000000pt" viewBox="0 0 512.000000 512.000000"
 preserveAspectRatio="xMidYMid meet">

<g transform="translate(0.000000,512.000000) scale(0.100000,-0.100000)"
fill="#000000" stroke="none">
<path d="M2315 5109 c-473 -48 -916 -222 -1305 -512 -122 -92 -395 -365 -487
-487 -274 -368 -439 -770 -505 -1235 -17 -118 -17 -512 0 -630 66 -465 231
-867 505 -1235 93 -123 365 -395 490 -489 364 -271 769 -437 1232 -503 118
-17 512 -16 635 0 473 65 897 245 1275 540 39 30 138 123 220 206 224 225 345
395 485 681 122 247 200 505 242 800 17 118 17 512 0 630 -66 463 -233 873
-504 1232 -94 125 -306 344 -429 442 -364 293 -787 478 -1254 547 -122 18
-477 26 -600 13z m1055 -972 c387 -64 634 -271 733 -617 49 -169 52 -225 52
-960 0 -735 -3 -791 -52 -960 -82 -286 -277 -489 -553 -575 -185 -57 -220 -59
-990 -59 -780 0 -816 2 -1003 64 -274 92 -459 287 -540 570 -49 169 -52 225
-52 965 0 614 2 702 18 803 58 367 249 609 567 720 184 64 291 71 1095 67 514
-2 647 -5 725 -18z"/>
<path d="M1873 3859 c-324 -25 -518 -171 -588 -444 -27 -104 -35 -306 -35
-850 0 -549 9 -757 35 -860 56 -218 202 -364 420 -420 103 -26 311 -35 855
-35 544 0 752 9 855 35 216 56 355 192 415 407 31 113 40 298 40 868 0 544 -9
752 -35 855 -44 170 -148 304 -287 370 -101 48 -171 64 -328 75 -157 11 -1197
11 -1347 -1z m1622 -271 c101 -51 139 -174 82 -270 -20 -34 -40 -53 -79 -72
-28 -14 -63 -26 -76 -26 -125 0 -224 122 -193 238 31 118 162 182 266 130z
m-783 -222 c388 -75 668 -413 668 -806 0 -451 -369 -820 -820 -820 -451 0
-820 369 -820 820 0 511 471 902 972 806z"/>
<path d="M2421 3074 c-131 -35 -266 -141 -328 -260 -112 -210 -75 -462 92
-629 208 -208 542 -208 750 0 103 103 155 229 155 375 0 242 -163 454 -395
515 -73 19 -202 18 -274 -1z"/>
</g>
</svg>
