<?xml version="1.0" ?>
<!DOCTYPE svg PUBLIC '-//W3C//DTD SVG 1.1//EN' 'http://www.w3.org/Graphics/SVG/1.1/DTD/svg11.dtd'><svg
    xmlns="http://www.w3.org/2000/svg" xmlns:serif="http://www.serif.com/" xmlns:xlink="http://www.w3.org/1999/xlink"
    height="100%" style="fill-rule:evenodd;clip-rule:evenodd;stroke-linejoin:round;stroke-miterlimit:2;" version="1.1"
    viewBox="0 0 512 512" width="100%" xml:space="preserve">
    <g transform="translate(0, 512) scale(0.1, -0.1)">
        <path
            d="M2300 5109 c-549 -60 -1045 -281 -1461 -652 -463 -413 -766 -1016 -830 -1652 -15 -147 -6 -457 16 -605 100 -652 414 -1207 920 -1625 265 -220 627 -402 970 -490 236 -60 390 -79 645 -79 128 0 260 5 305 12 515 80 918 249 1280 536 393 313 687 731 844 1204 88 262 125 499 125 787 0 330 -41 572 -144 870 -129 369 -338 695 -631 981 -392 382 -851 609 -1414 699 -119 19 -501 28 -625 14z m28 -1619 c213 -286 392 -519 398 -517 6 1 226 235 489 520 l479 517 134 0 134 0 -39 -43 c-21 -24 -270 -294 -553 -601 -283 -306 -514 -563 -514 -571 1 -7 281 -386 623 -843 341 -456 621 -833 621 -836 0 -3 -206 -6 -457 -6 l-458 0 -412 553 c-227 303 -418 560 -425 569 -12 16 -71 -45 -538 -551 l-525 -570 -138 0 -138 -1 253 273 c707 763 943 1021 942 1031 -1 8 -1098 1485 -1176 1584 -8 9 83 12 451 12 l462 0 387 -520z" />
        <path
            d="M1435 3788 c8 -13 428 -575 933 -1250 l917 -1227 212 -1 213 0 -323 433 c-178 237 -599 800 -935 1250 l-611 817 -211 0 -211 0 16 -22z" />
    </g>
</svg>