<svg xmlns="http://www.w3.org/2000/svg" version="1.1" xmlns:xlink="http://www.w3.org/1999/xlink" xmlns:svgjs="http://svgjs.com/svgjs" width="512" height="512" x="0" y="0" viewBox="0 0 495.827 495.827" style="enable-background:new 0 0 512 512" xml:space="preserve" class=""><g><path fill="#c9bfc8" d="M282.505 240.045 33.141 489.409c-7.83 7.83-20.239 8.116-27.716.639s-7.191-19.886.639-27.716l249.364-249.364 46.526-44.309 28.767 28.433z" data-original="#c9bfc8" data-darkreader-inline-fill="" style="--darkreader-inline-fill: #464a49;"></path><path fill="#fee45a" d="m426.583 223.175-38.274-61.309a4.829 4.829 0 0 1-.473-4.116l22.83-66.817c1.297-3.794-2.332-7.423-6.127-6.126l-66.817 22.83a4.829 4.829 0 0 1-4.116-.473l-51.678-32.262-5.069 1.9 5.588 72.65-18.409 12.492-43.392 31.229 65.746 19.066 16.108 50.296 10.519 8.218.309 3.817 30.749-47.596a4.823 4.823 0 0 1 4.43-2.192l73.605 5.758c3.95.31 6.569-4.006 4.471-7.365z" data-original="#fee45a" data-darkreader-inline-fill="" style="--darkreader-inline-fill: #86730f;" class=""></path><path fill="#fed402" d="M296.231 208.825a4.826 4.826 0 0 0-3.225-3.225l-58.061-17.529 51.498-33.27a4.824 4.824 0 0 0 2.192-4.43l-5.758-73.605a4.9 4.9 0 0 1 .065-1.231l-10.644-6.645c-3.359-2.098-7.675.521-7.366 4.47l5.758 73.605a4.826 4.826 0 0 1-2.192 4.43l-58.415 37.738a4.72 4.72 0 0 0-1.855 2.251l-.008.001c-.004.01-.005.021-.009.032-.065.167-.1.341-.145.514-.038.143-.091.282-.115.428l-.002.008h.002c-.373 2.239.828 4.676 3.356 5.439l63.857 19.279a4.826 4.826 0 0 1 3.225 3.225l19.279 63.857c1.188 3.937 6.442 4.678 8.673 1.224l8.864-13.721z" data-original="#fed402" data-darkreader-inline-fill="" style="--darkreader-inline-fill: #b89c16;" class=""></path><path fill="#fee97d" d="M163.767 102.359c-10.416 8.657-13.392 21.236-8.928 37.737.667 2.465 3.272 3.871 5.694 3.06l29.553-9.89c3.074-1.029 4.039-4.902 1.807-7.253l-22.1-23.272c-1.598-1.684-4.242-1.865-6.026-.382zM346.984 5.562c-11.234-7.566-24.142-6.89-38.725 2.029-2.179 1.333-2.796 4.227-1.338 6.324l17.792 25.587c1.851 2.662 5.84 2.5 7.469-.303l16.129-27.746c1.166-2.006.598-4.594-1.327-5.891zM243.28 43.375a7.481 7.481 0 0 1-5.837-2.785l-13.664-16.901a7.5 7.5 0 1 1 11.664-9.43l13.664 16.901a7.5 7.5 0 0 1-5.827 12.215zM393.822 332.414c-8.657 10.416-21.236 13.392-37.737 8.928-2.465-.667-3.871-3.272-3.06-5.694l9.89-29.553c1.029-3.074 4.902-4.039 7.253-1.807l23.272 22.1c1.684 1.598 1.865 4.241.382 6.026zM490.618 149.197c7.566 11.234 6.89 24.142-2.029 38.725-1.333 2.179-4.227 2.796-6.324 1.338l-25.587-17.792c-2.662-1.851-2.5-5.84.303-7.469l27.746-16.129c2.007-1.166 4.595-.598 5.891 1.327zM477.202 274.07a7.47 7.47 0 0 1-4.71-1.668l-16.901-13.664a7.498 7.498 0 0 1-1.117-10.547 7.495 7.495 0 0 1 10.547-1.117l16.901 13.664a7.498 7.498 0 0 1 1.117 10.547 7.48 7.48 0 0 1-5.837 2.785zM439.861 65.445a7.5 7.5 0 0 1-5.126-12.977l18.749-17.541a7.498 7.498 0 0 1 10.601.353 7.5 7.5 0 0 1-.353 10.601l-18.749 17.541a7.476 7.476 0 0 1-5.122 2.023z" data-original="#fee97d" data-darkreader-inline-fill="" style="--darkreader-inline-fill: #72610c;" class=""></path></g></svg>