<?xml version="1.0" standalone="no"?>
<!DOCTYPE svg PUBLIC "-//W3C//DTD SVG 20010904//EN"
 "http://www.w3.org/TR/2001/REC-SVG-20010904/DTD/svg10.dtd">
<svg version="1.0" xmlns="http://www.w3.org/2000/svg"
 width="600pt" height="600pt" viewBox="0 0 600 600"
 preserveAspectRatio="xMidYMid meet">

<g transform="translate(0,600) scale(0.1,-0.1)"
fill="#717173" stroke="none">
<path d="M865 5990 c-389 -42 -715 -325 -822 -715 l-28 -100 0 -2170 0 -2170
28 -100 c94 -344 348 -598 692 -692 l100 -28 2170 0 2170 0 100 28 c344 94
598 348 692 692 l28 100 0 2170 0 2170 -28 100 c-94 344 -348 598 -692 692
l-100 28 -2120 1 c-1166 1 -2152 -2 -2190 -6z m3166 -1240 c61 -17 102 -52
132 -109 23 -46 27 -67 27 -135 0 -91 -18 -142 -66 -189 -66 -66 -8 -62 -891
-65 l-803 -2 0 -480 0 -479 738 -3 c723 -3 738 -3 782 -24 55 -25 105 -81 119
-131 6 -21 11 -72 11 -113 0 -90 -30 -164 -80 -200 -70 -50 -72 -50 -847 -50
l-723 0 0 -510 0 -510 803 -2 804 -3 49 -30 c72 -44 104 -111 104 -220 0 -109
-32 -176 -104 -220 l-49 -30 -1006 0 -1006 0 -49 24 c-62 31 -113 82 -140 140
l-21 46 -3 1515 c-2 1081 0 1530 8 1567 14 64 59 133 109 166 88 59 40 56
1096 56 620 1 983 -3 1006 -9z"/>
</g>
</svg>
