<?xml version="1.0" standalone="no"?>
<!DOCTYPE svg PUBLIC "-//W3C//DTD SVG 20010904//EN"
 "http://www.w3.org/TR/2001/REC-SVG-20010904/DTD/svg10.dtd">
<svg version="1.0" xmlns="http://www.w3.org/2000/svg"
 width="512.000000pt" height="512.000000pt" viewBox="0 0 512.000000 512.000000"
 preserveAspectRatio="xMidYMid meet">

<g transform="translate(0.000000,512.000000) scale(0.100000,-0.100000)"
fill="#f95753" stroke="none">
<path d="M1790 5102 c-19 -9 -45 -32 -57 -51 -22 -32 -23 -43 -23 -227 l0
-194 851 0 850 0 -3 199 c-3 223 -7 237 -79 273 -31 17 -89 18 -769 18 -680 0
-738 -1 -770 -18z"/>
<path d="M765 4326 c-27 -7 -64 -20 -81 -28 -49 -27 -115 -99 -143 -158 -24
-52 -26 -65 -29 -257 l-4 -203 2051 0 2051 0 0 173 c0 195 -12 262 -61 339
-39 60 -121 116 -196 134 -81 19 -3510 19 -3588 0z"/>
<path d="M850 3358 c-1 -84 213 -3168 222 -3203 14 -54 89 -129 145 -144 30
-8 409 -11 1355 -9 l1313 3 43 23 c46 24 97 87 106 130 6 27 236 3156 236
3206 l0 26 -1710 0 -1710 0 0 -32z m1272 -456 c14 -8 36 -32 47 -52 21 -38 21
-41 21 -1080 0 -1039 0 -1042 -21 -1080 -52 -93 -178 -99 -244 -12 -20 27 -20
45 -23 1067 -1 572 0 1054 3 1072 3 18 19 46 36 62 51 51 118 60 181 23z
m1027 -1 c14 -9 34 -30 45 -45 21 -27 21 -32 21 -1086 0 -1054 0 -1059 -21
-1086 -52 -71 -128 -88 -197 -46 -71 45 -67 -27 -67 1132 0 931 2 1046 16
1075 36 76 137 103 203 56z"/>
</g>
</svg>
