<svg class="gb-new-button" version="1.0"
     width="18pt" height="18pt" viewBox="0 0 512 512"
     preserveAspectRatio="xMidYMid meet">
    <g transform="translate(0,512) scale(0.1,-0.1)"
       stroke="none">
        <path d="M4275 5104 c-38 -8 -113 -35 -165 -60 l-95 -46 -1266 -1267 -1267
                                                    -1266 -191 -575 c-109 -330 -191 -591 -191 -612 0 -99 79 -178 177 -178 23 0
                                                    273 78 613 191 l575 191 1266 1267 1267 1266 46 95 c101 210 101 411 -1 620
                                                    -38 79 -60 109 -132 181 -72 73 -101 94 -181 132 -153 73 -299 93 -455 61z
                                                    m285 -385 c66 -32 123 -86 158 -154 23 -44 27 -62 27 -145 0 -81 -4 -103 -24
                                                    -145 -20 -40 -274 -299 -1233 -1260 l-1208 -1210 -352 -117 c-193 -65 -353
                                                    -116 -355 -115 -1 2 50 161 113 353 l116 349 1182 1183 c649 651 1198 1197
                                                    1219 1214 21 17 64 42 95 55 78 32 183 29 262 -8z"/>
        <path d="M406 4735 c-141 -39 -272 -144 -338 -271 -73 -139 -69 11 -66 -2116
                                                    l3 -1913 26 -67 c14 -37 41 -89 58 -117 76 -118 226 -218 361 -241 46 -8 568
                                                    -10 1785 -8 l1720 3 69 27 c182 71 313 222 351 406 13 62 15 209 13 1036 l-3
                                                    962 -24 36 c-50 72 -137 104 -214 79 -45 -15 -102 -78 -116 -128 -7 -25 -11
                                                    -345 -11 -975 0 -637 -3 -946 -11 -965 -13 -34 -55 -80 -91 -99 -23 -12 -283
                                                    -14 -1724 -14 l-1697 0 -41 24 c-23 13 -51 42 -64 64 l-22 40 2 1889 3 1890
                                                    29 37 c16 21 47 47 70 57 39 18 89 19 1173 19 775 0 1141 3 1160 11 67 25 114
                                                    94 115 168 0 67 -31 124 -85 156 l-44 25 -1169 -1 c-950 -1 -1178 -3 -1218
                                                    -14z"/>
    </g>
</svg>
