<svg class="gb-new-button" version="1.0"
     width="18pt" height="18pt" viewBox="0 0 512 512"
     preserveAspectRatio="xMidYMid meet">
    <g transform="translate(0,512) scale(0.024,-0.024)"
       stroke="none">
        <path d="M10005 21313 c-228 -14 -743 -76 -1064 -128
                                            -1187 -194 -2266 -563 -3346 -1146 -1097 -592 -2165
                                            -1462 -3041 -2474 -911 -1054 -1538 -2163 -1989 -3518
                                            -260 -779 -470 -1719 -514 -2292 -40 -521 -40 -1658
                                            -1 -2175 28 -355 138 -962 270 -1485 206 -816 471 -1514
                                            874 -2300 500 -976 1011 -1690 1762 -2465 996 -1027 1800
                                            -1622 2979 -2205 812 -401 1328 -594 2130 -794 1311 -326
                                            2585 -411 3865 -255 997 120 2044 400 2860 762 612 272
                                            1283 627 1696 897 856 561 1701 1317 2373 2125 1177 1415
                                            1973 3105 2295 4875 167 918 214 1962 131 2905 -77 861
                                            -270 1743 -561 2554 -394 1098 -988 2180 -1667 3033 -275
                                            347 -515 613 -896 993 -428 427 -695 661 -1112 975 -1104
                                            829 -2533 1508 -3864 1835 -615 151 -1304 252 -1900 280
                                            -195 9 -1150 11 -1280 3z m1245 -1357 c574 -36 817 -63
                                            1178 -135 1417 -282 2706 -853 3822 -1692 354 -267 595
                                            -475 924 -799 492 -485 881 -954 1264 -1527 661 -987 1130
                                            -2126 1381 -3355 125 -612 146 -865 146 -1783 0 -886 -20
                                            -1155 -131 -1714 -247 -1251 -717 -2400 -1410 -3447 -338
                                            -511 -701 -952 -1163 -1414 -431 -431 -805 -744 -1308
                                            -1098 -1024 -717 -2199 -1214 -3505 -1481 -608 -124 -869
                                            -146 -1768 -146 -927 0 -1227 27 -1900 171 -2455 525 -4503
                                            1916 -5897 4004 -708 1062 -1189 2286 -1427 3631 -75 423
                                            -91 686 -91 1489 0 913 20 1166 141 1770 303 1509 930 2869
                                            1853 4015 911 1132 2092 2070 3348 2659 1000 470 1996 742
                                            3148 861 184 19 1029 13 1395 -9z"/>
        <path d="M6555 11320 c-1083 -9 -1320 -18 -1426 -55 -88 -32
                                            -247 -181 -296 -281 -50 -99 -58 -144 -58 -319 0 -175 8 -220
                                            58 -319 49 -99 208 -249 296 -281 157 -55 546 -59 5536 -59
                                            4990 0 5379 4 5536 59 88 32 247 182 296 281 50 99 58 144 58
                                            319 0 175 -8 220 -58 319 -49 99 -208 249 -296 281 -68 24 -222
                                            35 -606 46 -454 12 -7773 20 -9040 9z"/>
    </g>
</svg>
